<svg xmlns="http://www.w3.org/2000/svg" viewBox="0 0 40 40">
<rect width="40" height="40" rx="8" fill="#0A1526"/>
<g fill="#00D4AA">
<circle cx="9" cy="9" r="1.5"/><circle cx="15" cy="9" r="1.5"/><circle cx="21" cy="9" r="1.5"/><circle cx="27" cy="9" r="1.5"/><circle cx="33" cy="9" r="1.5" opacity=".4"/>
<circle cx="9" cy="15" r="1.5" opacity=".5"/><circle cx="15" cy="15" r="1.5"/><circle cx="21" cy="15" r="1.5"/><circle cx="27" cy="15" r="1.5" opacity=".6"/>
<circle cx="9" cy="21" r="1.5" opacity=".7"/><circle cx="15" cy="21" r="1.5" opacity=".5"/><circle cx="21" cy="21" r="1.5"/><circle cx="27" cy="21" r="1.5"/><circle cx="33" cy="21" r="1.5" opacity=".5"/>
<circle cx="9" cy="27" r="1.5" opacity=".3"/><circle cx="15" cy="27" r="1.5" opacity=".6"/><circle cx="21" cy="27" r="1.5"/><circle cx="27" cy="27" r="1.5" opacity=".7"/>
<circle cx="15" cy="33" r="1.5" opacity=".4"/><circle cx="21" cy="33" r="1.5" opacity=".5"/>
</g>
</svg>
